#!OML:ASF F:\VICON\USERDATA\INSTALL\rory3\rory3.ASF
:FULLY-SPECIFIED
:DEGREES
188
root 0.508935 18.006 3.5824 -0.893356 -3.38981 -6.96162
lowerback 9.97037 1.50778 6.69436
upperback 0.871938 2.83363 1.87558
thorax -4.4547 1.28875 -2.18176
lowerneck -18.1044 -2.91166 -2.2517
upperneck 18.3395 -3.54563 0.723564
head 8.77438 -1.7458 0.163674
rclavicle 2.48038e-014 1.73564e-014
rhumerus -21.1709 -3.27097 -83.8637
rradius 33.5996
rwrist -3.1837
rhand -18.7208 24.4332
rfingers 7.12502
rthumb 7.57465 -5.41115
lclavicle 2.48038e-014 1.73564e-014
lhumerus -36.5424 0.95556 83.363
lradius 28.9857
lwrist 8.81258
lhand -28.2874 18.7612
lfingers 7.12502
lthumb -1.66345 48.7345
rfemur 1.47544 6.43376 34.8183
rtibia 25.1627
rfoot -19.694 -10.24
rtoes 3.45671
lfemur -29.6012 -0.88977 -10.3561
ltibia 33.6524
lfoot -6.85604 4.56231
ltoes -4.44043
189
root 0.514225 17.9892 3.76521 -0.819539 -3.6106 -7.09205
lowerback 9.90857 1.65203 6.8159
upperback 0.866477 3.03182 1.84956
thorax -4.4015 1.38572 -2.29907
lowerneck -17.8857 -2.92975 -2.17543
upperneck 18.2929 -3.59447 0.714603
head 8.71844 -1.76549 0.145396
rclavicle -2.661e-014 -2.53699e-014
rhumerus -21.0859 -3.1684 -83.8679
rradius 34.0815
rwrist -3.34525
rhand -18.659 23.9861
rfingers 7.12502
rthumb 7.63428 -5.85614
lclavicle -2.661e-014 -2.53699e-014
lhumerus -36.7582 1.40488 83.1183
lradius 28.8904
lwrist 7.8391
lhand -27.2617 19.647
lfingers 7.12502
lthumb -0.6728 49.6257
rfemur 2.37005 6.69113 34.9919
rtibia 24.5936
rfoot -19.8793 -10.2866
rtoes 2.95825
lfemur -29.264 -1.48461 -9.95415
ltibia 30.6763
lfoot -6.66261 5.09782
ltoes -3.73066
190
root 0.523063 17.9695 3.94982 -0.656194 -3.71993 -7.15362
lowerback 9.93388 1.79852 6.96029
upperback 0.752567 3.24743 1.77559
thorax -4.50452 1.48273 -2.48711
lowerneck -17.7607 -3.06482 -2.06872
upperneck 18.2616 -3.79604 0.639528
head 8.68452 -1.86152 0.0790479
rclavicle -1.01007e-014 -3.8763e-015
rhumerus -21.1008 -3.40557 -83.8045
rradius 34.5701
rwrist -3.41235
rhand -18.3851 23.43
rfingers 7.12502
rthumb 7.8987 -6.40246
lclavicle -1.01007e-014 -3.8763e-015
lhumerus -36.946 1.38823 83.0846
lradius 28.746
lwrist 6.35231
lhand -26.4865 21.3312
lfingers 7.12502
lthumb 0.0758357 51.311
rfemur 3.12822 6.85021 35.0754
rtibia 24.1204
rfoot -20.1286 -10.4238
rtoes 2.39265
lfemur -29.0548 -2.3339 -9.55753
ltibia 27.7823
lfoot -6.73395 5.67623
ltoes -3.46154
191
root 0.533124 17.9475 4.13435 -0.490455 -3.68864 -7.01211
lowerback 9.92201 1.86061 6.86761
upperback 0.609283 3.32269 1.68642
thorax -4.64167 1.51318 -2.54116
lowerneck -17.7698 -3.0603 -1.94916
upperneck 18.4426 -3.78881 0.476809
head 8.74185 -1.86687 0.00377251
rclavicle -7.11898e-015 1.09829e-014
rhumerus -21.0148 -3.33095 -83.7549
rradius 34.6797
rwrist -3.42897
rhand -18.1706 23.2695
rfingers 7.12502
rthumb 8.1057 -6.55508
lclavicle -7.11898e-015 1.09829e-014
lhumerus -37.2702 1.73634 82.85
lradius 29.1002
lwrist 3.41676
lhand -23.6818 27.9541
lfingers 7.12502
lthumb 2.78463 57.9156
rfemur 3.81388 6.68792 34.8707
rtibia 23.73
rfoot -20.0983 -10.3468
rtoes 3.52322
lfemur -28.9622 -3.07573 -9.43877
ltibia 24.9821
lfoot -6.87847 5.98345
ltoes -3.99097
192
root 0.542356 17.9191 4.32006 -0.410245 -3.77662 -7.10474
lowerback 9.94115 1.9019 6.8829
upperback 0.491487 3.39044 1.73578
thorax -4.77273 1.53957 -2.51054
lowerneck -17.6263 -2.96287 -2.03116
upperneck 18.5783 -3.63751 0.48053
head 8.76256 -1.80169 0.0387025
rclavicle 3.53495e-014 -3.72721e-016
rhumerus -20.8102 -3.07152 -83.7062
rradius 34.4933
rwrist -3.35639
rhand -18.2847 23.7954
rfingers 7.12502
rthumb 7.99557 -6.03333
lclavicle 3.53495e-014 -3.72721e-016
lhumerus -37.827 2.3557 82.5014
lradius 30.0524
lwrist -0.638475
lhand -16.556 42.4928
lfingers 7.12502
lthumb 9.66372 72.2511
rfemur 4.58461 6.41788 34.9011
rtibia 23.3592
rfoot -19.5845 -10.239
rtoes 5.44265
lfemur -28.7127 -3.59332 -9.07105
ltibia 22.2624
lfoot -7.10701 6.07204
ltoes -4.27384
193
root 0.556326 17.903 4.51085 -0.303055 -3.82392 -7.25249
lowerback 9.78241 1.9816 7.07529
upperback 0.44068 3.50785 1.76486
thorax -4.71741 1.59456 -2.59539
lowerneck -17.4767 -2.89038 -2.14694
upperneck 18.5721 -3.53121 0.580334
head 8.73662 -1.74983 0.107151
rclavicle 9.79946e-015 -8.24956e-015
rhumerus -20.5748 -3.38772 -83.5782
rradius 34.3401
rwrist -3.15145
rhand -18.2415 24.2421
rfingers 7.12502
rthumb 8.03721 -5.58503
lclavicle 9.79946e-015 -8.24956e-015
lhumerus -38.7299 -1.28232 85.4568
lradius 34.2803
lwrist 6.81775
lhand -17.3762 75.8091
lfingers 7.12502
lthumb 8.87231 -105.603
rfemur 5.31149 6.09568 34.9446
rtibia 23.0601
rfoot -19.4832 -10.0432
rtoes 6.07592
lfemur -28.4407 -4.28566 -8.62026
ltibia 19.6291
lfoot -7.33956 6.1659
ltoes -4.21296
194
root 0.573775 17.8854 4.69836 -0.122519 -3.75473 -7.24754
lowerback 9.44026 2.01468 7.16749
upperback 0.522304 3.52469 1.75288
thorax -4.43171 1.61345 -2.64213
lowerneck -17.4509 -2.86956 -2.26335
upperneck 18.3739 -3.49248 0.686963
head 8.66824 -1.72863 0.168966
rclavicle 1.08508e-014 -1.15544e-014
rhumerus -20.2807 -3.57621 -83.4721
rradius 34.4751
rwrist -3.1447
rhand -17.983 24.2786
rfingers 7.12502
rthumb 8.2867 -5.53885
lclavicle 1.08508e-014 -1.15544e-014
lhumerus -38.7872 -1.27062 85.7696
lradius 34.1909
lwrist 8.27229
lhand -18.5157 76.9723
lfingers 7.12502
lthumb 7.7726 -106.809
rfemur 5.91499 5.7924 34.8151
rtibia 22.7993
rfoot -19.7901 -9.80032
rtoes 5.75163
lfemur -28.3454 -5.36455 -8.21708
ltibia 17.2143
lfoot -7.27762 6.62433
ltoes -4.25314
